<?xml version="1.0" encoding="UTF-8" standalone="no"?>
<!-- Generator: Adobe Illustrator 22.0.1, SVG Export Plug-In . SVG Version: 6.00 Build 0)  -->

<svg
   version="1.1"
   id="a_x2F_w"
   x="0px"
   y="0px"
   viewBox="0 0 100.8 103.6"
   xml:space="preserve"
   sodipodi:docname="cs-crest.svg"
   width="100.8"
   height="103.6"
   inkscape:version="1.2.2 (b0a8486541, 2022-12-01)"
   xmlns:inkscape="http://www.inkscape.org/namespaces/inkscape"
   xmlns:sodipodi="http://sodipodi.sourceforge.net/DTD/sodipodi-0.dtd"
   xmlns="http://www.w3.org/2000/svg"
   xmlns:svg="http://www.w3.org/2000/svg"
   xmlns:rdf="http://www.w3.org/1999/02/22-rdf-syntax-ns#"
   xmlns:cc="http://creativecommons.org/ns#"
   xmlns:dc="http://purl.org/dc/elements/1.1/"><metadata
   id="metadata203"><rdf:RDF><cc:Work
       rdf:about=""><dc:format>image/svg+xml</dc:format><dc:type
         rdf:resource="http://purl.org/dc/dcmitype/StillImage" /></cc:Work></rdf:RDF></metadata><defs
   id="defs201"><clipPath
     clipPathUnits="userSpaceOnUse"
     id="clipPath215"><rect
       style="fill:#0000ff;fill-rule:evenodd"
       id="rect217"
       width="102.11214"
       height="105.74543"
       x="709.01825"
       y="4.7956958" /></clipPath><clipPath
     clipPathUnits="userSpaceOnUse"
     id="clipPath219"><rect
       style="fill:#0000ff;fill-rule:evenodd"
       id="rect221"
       width="102.11214"
       height="105.74543"
       x="93.818237"
       y="3.3956957" /></clipPath><clipPath
     clipPathUnits="userSpaceOnUse"
     id="clipPath223"><rect
       style="fill:#0000ff;fill-rule:evenodd"
       id="rect225"
       width="102.11214"
       height="105.74543"
       x="89.241837"
       y="-0.20430435" /></clipPath><clipPath
     clipPathUnits="userSpaceOnUse"
     id="clipPath227"><rect
       style="fill:#0000ff;fill-rule:evenodd"
       id="rect229"
       width="102.11214"
       height="105.74543"
       x="89.241837"
       y="-0.20430435" /></clipPath><clipPath
     clipPathUnits="userSpaceOnUse"
     id="clipPath231"><rect
       style="fill:#0000ff;fill-rule:evenodd"
       id="rect233"
       width="102.11214"
       height="105.74543"
       x="89.241837"
       y="-0.20430435" /></clipPath><clipPath
     clipPathUnits="userSpaceOnUse"
     id="clipPath235"><rect
       style="fill:#0000ff;fill-rule:evenodd"
       id="rect237"
       width="102.11214"
       height="105.74543"
       x="89.241837"
       y="-0.20430435" /></clipPath><clipPath
     clipPathUnits="userSpaceOnUse"
     id="clipPath239"><rect
       style="fill:#0000ff;fill-rule:evenodd"
       id="rect241"
       width="102.11214"
       height="105.74543"
       x="89.241837"
       y="-0.20430435" /></clipPath><clipPath
     clipPathUnits="userSpaceOnUse"
     id="clipPath243"><rect
       style="fill:#0000ff;fill-rule:evenodd"
       id="rect245"
       width="102.11214"
       height="105.74543"
       x="89.241837"
       y="-0.20430435" /></clipPath><clipPath
     clipPathUnits="userSpaceOnUse"
     id="clipPath247"><rect
       style="fill:#0000ff;fill-rule:evenodd"
       id="rect249"
       width="102.11214"
       height="105.74543"
       x="93.818237"
       y="3.3956957" /></clipPath><clipPath
     clipPathUnits="userSpaceOnUse"
     id="clipPath251"><rect
       style="fill:#0000ff;fill-rule:evenodd"
       id="rect253"
       width="102.11214"
       height="105.74543"
       x="89.241837"
       y="-0.20430435" /></clipPath><clipPath
     clipPathUnits="userSpaceOnUse"
     id="clipPath255"><rect
       style="fill:#0000ff;fill-rule:evenodd"
       id="rect257"
       width="102.11214"
       height="105.74543"
       x="93.818237"
       y="3.3956957" /></clipPath><clipPath
     clipPathUnits="userSpaceOnUse"
     id="clipPath259"><rect
       style="fill:#0000ff;fill-rule:evenodd"
       id="rect261"
       width="102.11214"
       height="105.74543"
       x="89.241837"
       y="-0.20430435" /></clipPath></defs><sodipodi:namedview
   pagecolor="#ffffff"
   bordercolor="#666666"
   borderopacity="1"
   objecttolerance="10"
   gridtolerance="10"
   guidetolerance="10"
   inkscape:pageopacity="0"
   inkscape:pageshadow="2"
   inkscape:window-width="1080"
   inkscape:window-height="1896"
   id="namedview199"
   showgrid="false"
   fit-margin-top="0"
   fit-margin-left="0"
   fit-margin-right="0"
   fit-margin-bottom="0"
   inkscape:pagecheckerboard="true"
   inkscape:zoom="6.3223664"
   inkscape:cx="38.276807"
   inkscape:cy="55.596272"
   inkscape:window-x="0"
   inkscape:window-y="0"
   inkscape:window-maximized="1"
   inkscape:current-layer="a_x2F_w"
   inkscape:showpageshadow="2"
   inkscape:deskcolor="#d1d1d1" />
<style
   type="text/css"
   id="style2">
	.st0{fill:#FFFFFF;}
	.st1{fill:#EE3124;}
	.st2{fill:#FFEF00;}
	.st3{fill:#00539B;}
</style>


<path
   class="st0"
   d="m 3.8236026,3.6 c -0.1,2.4 -0.5,15 -0.5,15 -0.4,8.8 -0.7,16.4 -0.7,23.3 0,30.1 5.8,43.9 39.4000004,60.2 33.6,-16.3 39.4,-30 39.4,-60.2 0,-6.8 -0.3,-14.6 -0.6,-23.4 0,0 -0.5,-12.6 -0.5,-15 -0.1,0.1 -76.5000004,0.1 -76.5000004,0.1 z"
   id="path50"
   inkscape:connector-curvature="0"
   style="fill:#ffffff"
   clip-path="url(#clipPath259)"
   transform="translate(-89.9236)" />
<g
   id="g56"
   transform="translate(-94.499997,-3.6)"
   clip-path="url(#clipPath255)">
	<path
   class="st1"
   d="M 82.4,9.8 H 10.8 l -0.7,20 H 83.3 Z M 49,28.4 48.9,28.2 c 0,0 0.5,-0.3 1.3,-0.6 1.4,-0.8 2.6,-2.6 2.6,-4.3 0,-2.9 -2.7,-5.4 -6.2,-5.4 -3.5,0 -6.3,2.4 -6.3,5.4 0,1.6 1.2,3.5 2.6,4.3 0.7,0.5 1.3,0.6 1.3,0.6 L 44,28.4 c 0,0 -0.6,-0.2 -1.3,-0.6 -2.4,-1.5 -3.7,-3.9 -3.7,-6.1 0,-3.7 3.5,-6.8 7.6,-6.8 4.1,0 7.6,3 7.6,6.8 0,2.2 -1.3,4.6 -3.7,6.1 -0.9,0.4 -1.5,0.6 -1.5,0.6 z m 1.7,-0.3 v -0.2 c 2.2,-1.5 3.7,-3.8 3.7,-6.2 0,-3.9 -3.6,-7.1 -7.9,-7.1 -4.3,0 -7.9,3.2 -7.9,7.1 0,2.3 1.5,4.7 3.7,6.2 l -0.1,0.2 c -3.3,-1.6 -5.7,-4.6 -5.7,-7.9 0,-4.7 4.7,-8.5 10,-8.5 5.4,0 10,3.8 10,8.5 0,3.3 -2.4,6.4 -5.8,7.9 z"
   id="path52"
   inkscape:connector-curvature="0"
   style="fill:#ee3124" />
	<path
   class="st1"
   d="m 55.8,32 v 11.2 c -0.1,0.1 -0.9,0.7 -2.3,0.7 -1.4,0 -3.1,-0.6 -4.6,-0.6 -0.9,0 -1.6,0.4 -2.3,1 h -0.4 c 0,0 -0.9,-1 -2.3,-1 -1.5,0 -3.2,0.6 -4.6,0.6 -1.4,0 -2.1,-0.7 -2.3,-0.8 V 32 c -0.3,0.5 -0.9,1.2 -1.5,1.2 v 11.1 c 0.5,0.5 1.3,0.6 2,0.6 1.8,0.1 4,-0.8 5.9,-0.8 1,0 2,0.3 2.7,1.1 0.7,-0.8 1.6,-1.1 2.7,-1.1 1.9,0 4.1,0.8 5.9,0.8 0.7,0 1.5,-0.2 2,-0.6 V 33.2 c 0,0 -0.8,-0.7 -0.9,-1.2 z"
   id="path54"
   inkscape:connector-curvature="0"
   style="fill:#ee3124" />
</g>
<path
   class="st1"
   d="m 69.723603,74.4 c -0.2,-0.7 -0.8,-1.3 -1.5,-1.4 0.1,0.1 0.3,0.3 0.4,0.4 0.6,0.7 0.3,2.5 -0.5,2.8 0.3,-1 -0.5,-1.8 -1.6,-1.6 0.4,0.3 0.6,0.9 0.5,1.5 -0.2,0.5 -0.8,1.1 -1.5,1 -0.9,-0.2 -0.4,-1.4 -0.5,-2.1 0,-1 -0.7,-1.6 -1.2,-1.7 -0.1,0 0,-0.1 0,-0.1 0.4,0.1 0.6,0.3 1.2,0.2 0.6,0 1.2,-0.4 1.4,-0.6 0.3,-0.4 0.4,-0.9 0.2,-1.3 -0.1,0.2 -0.3,0.4 -0.5,0.5 -0.4,0.4 -1.1,0.4 -1.6,0.1 -0.5,-0.3 -1.1,-0.8 -1.5,-1.4 -1.5,-1.9 -3.1,-3.9 -4.9,-5 -1.1,-0.7 -2.6,-1.3 -3.9,-1.4 -0.8,0 -1.6,0.2 -2.4,0.6 -1,0.6 -1.6,1.6 -1.6,2.6 -0.2,1.2 0.3,2.4 1,3.3 1,1.3 2.3,2.1 3.6,2.9 0.9,0.6 1.9,1.3 2.7,2 0.7,0.5 1.3,1.2 1.5,2.1 0.2,0.8 -0.2,1.4 -0.5,1.7 -0.6,0.5 -2.2,0.5 -2.7,-0.1 -0.4,-2.8 -2.4,-4.1 -4.9,-4.7 -1.2,-0.3 -2.6,-0.6 -3.6,-1.2 -0.9,-0.5 -1.7,-1 -2.2,-2.2 -0.2,0 -0.5,0 -0.9,-0.2 -0.7,-0.3 -1,-0.8 -1.2,-1.2 0.5,0.5 0.8,0.7 2,0.8 0.7,0 1.6,-0.4 1.9,-0.9 -0.7,0.1 -1.3,0.1 -1.6,-0.2 -0.4,-0.3 -0.8,-0.8 -0.7,-1.4 0.6,0.7 1.9,1 3.1,0.4 0.2,-0.1 0.6,-0.5 0.7,-0.6 -0.6,0.1 -1.2,0 -1.6,-0.4 -0.4,-0.3 -0.6,-0.7 -0.6,-1.4 0.4,0.4 1.1,0.6 1.8,0.5 0.7,-0.1 1.4,-0.3 1.6,-0.9 -0.5,0.1 -1,0 -1.5,-0.3 -0.4,-0.3 -0.6,-0.6 -0.7,-1.1 -0.6,-0.1 -1.2,-0.4 -1.6,-0.7 -0.4,0.5 -0.5,1.8 -0.5,2.6 -1.1,0 -2,-0.8 -2.2,-1.8 -0.5,0.5 -0.5,1.8 -0.3,2.6 -1.3,-0.1 -2.1,-0.7 -2.4,-1.8 -0.2,0.4 -0.3,0.9 -0.3,1.5 0,0.2 0,0.5 0.1,0.7 0,0 -0.3,0 -0.7,-0.4 -0.5,-0.4 -1.1,-1.4 -1,-1.8 0.4,0.5 0.7,0.9 1.3,1.3 -0.1,-1.2 0.5,-2.1 1.1,-2.6 0,1.3 0.5,2 1.5,2.3 -0.2,-0.7 0.1,-1.4 0.2,-1.8 0.2,-0.5 0.6,-1 0.9,-1.2 0,1 0.5,2.1 1.4,2.3 0,-0.8 0.1,-1.7 0.5,-2.3 0.2,-0.3 0.3,-0.5 0.5,-0.6 0.3,0.8 1.3,1.3 2.3,1.3 2.6,0.1 2.7,-2 2.7,-2 -0.4,0.2 -0.8,0.5 -1.6,0.5 -1.1,0 -1.4,-0.8 -1.4,-0.8 0.6,0.3 1.8,-0.1 2.4,-0.5 0.4,-0.3 0.8,-0.9 0.8,-1.5 0,-0.5 -0.1,-1 -0.5,-1.2 -0.5,1.1 -2.8,1.7 -3.7,0.5 0.9,0.1 1.7,-0.4 2.1,-0.9 0.1,-0.2 0.2,-0.6 0.1,-0.8 0,0 -0.6,0.5 -1.6,0.5 -0.9,0 -1.5,-0.4 -1.5,-0.4 0.6,0 1.8,-0.7 1.7,-1.5 0,0 -0.4,0.2 -0.6,0.2 -0.7,0.1 -1.6,0 -2,-0.4 0,-0.1 0.3,-1.9 0.1,-2.1 -0.8,0.4 -1.6,0.9 -2,1.7 -0.5,-0.1 -1,-0.2 -1.7,-0.1 -0.6,0 -1.4,0.1 -1.7,0.3 -0.2,0.1 -0.5,0.3 -0.6,0.5 -0.2,0.2 -0.3,0.5 -0.5,0.6 -0.5,0.3 -1.2,0.4 -1.8,0.5 -0.5,0.1 -1.1,0 -1.2,0.4 -0.2,0.4 0.2,0.6 0.3,0.8 0.1,0.1 0.2,0.4 0.3,0.5 0.1,0.2 0.1,0.5 0.2,0.6 0.6,1 1.2,0.5 1.8,0.4 0.7,-0.3 1.7,-0.5 2.6,-0.5 0.5,0 1.1,0.1 1.6,0.4 0.4,0.3 0.6,0.8 0.5,1.3 0,0.5 -0.2,0.8 -0.5,1.1 -0.2,0.2 -0.8,0.5 -1.7,0.5 -1.1,0 -2.2,-0.5 -3.2,-0.5 -0.3,0 -0.5,0.1 -0.6,0.2 -0.3,0.3 -0.3,0.7 0,1.1 1,0 0.9,1.1 0.8,1.6 -0.5,1.3 -1.5,1.3 -1.9,1.3 -0.5,-0.1 -1.2,-0.3 -1.4,-0.6 -0.5,1.4 0.5,2.6 1.7,2.6 -0.9,0.6 -2.7,0.1 -2.8,-0.9 -0.1,0.2 -0.3,0.5 -0.3,0.7 -0.1,1.7 1.3,2.4 3,2.4 -1,0.5 -2.3,0.2 -3.5,-0.1 -1.1,-0.3 -1.6,-0.5 -2.4,-1 -0.9,-0.5 -1.9,-1.2 -2.4,-2 -0.2,-0.3 -0.4,-0.8 -0.3,-1.2 0.1,-1.3 1.6,-1.5 1.4,-3 -1,-0.3 -2.1,0.2 -2.4,1.2 -0.1,0.3 -0.1,0.5 -0.1,0.9 -0.4,-0.4 -0.7,-0.7 -1.2,-1.1 -0.4,-0.3 -0.7,-0.5 -1.1,-0.5 0,0 -0.1,0.3 -0.4,0.6 -0.1,0.1 -0.5,0.5 -0.5,0.5 0,0.3 0.3,0.5 0.4,0.5 0.4,0.3 1,0.5 1.3,0.9 0.1,0.1 0.1,0.3 0.1,0.5 -0.3,0.1 -0.5,0.1 -0.8,0 -0.8,-0.2 -1.4,-0.9 -2.4,-0.9 -0.4,0 -0.7,0 -0.9,0.3 0.3,0.4 0.2,1 0,1.4 0.2,0.4 0.5,0.5 0.8,0.5 0.5,0.1 1.2,0 1.6,0 0.3,0 0.5,0.1 0.6,0.3 -0.3,0.2 -0.5,0.4 -0.9,0.5 -0.7,0.2 -1.6,-0.4 -2.3,0 0,0 0.2,0.3 0,0.6 -0.1,0.3 -0.3,0.6 -0.3,0.6 0.4,0.3 0.6,0.4 1,0.5 0.6,0 1.4,-0.4 2,-0.6 0.4,-0.1 0.6,-0.2 0.9,-0.2 -0.5,0.7 -1.4,1.4 -2.4,1.5 -0.1,0 -0.3,0 -0.3,0 0,0.1 0.3,0.2 0.4,0.3 0.2,0.1 0.6,0.2 0.9,0.3 1.4,0.1 2.5,-0.4 3.4,-0.9 -0.5,0.8 -1.2,1.3 -2.1,1.6 0.1,0.1 0.4,0.2 0.5,0.2 2.1,0.4 3.9,-1.1 3.9,-1.1 0,0.4 -0.4,1 -1,1.4 -0.2,0.3 -0.5,0.3 -0.5,0.3 0.3,0.3 1,0.4 1.6,0.3 0.6,0 1.3,-0.3 1.9,-0.4 0.9,-0.2 1.6,-0.1 2.1,-0.3 -0.6,0.3 -1.3,0.5 -2,0.7 -0.8,0.3 -1.6,0.7 -2.3,1.1 -0.7,0.4 -1.5,1 -2.1,1.3 -0.7,0.4 -1.6,0.2 -2,-0.4 -0.2,-0.3 -0.2,-0.6 -0.3,-1 -0.2,-0.7 -0.7,-1.5 -1.6,-1.4 -0.1,0.6 -0.6,1.1 -0.9,1.3 0.1,1.2 1.6,1.2 1.8,2.5 -0.1,0.1 -0.5,0.1 -0.7,0 -0.6,-0.2 -1.1,-0.5 -1.6,-0.5 -0.4,0 -0.6,0.1 -1,0.3 0.1,0.1 0.2,0.3 0.3,0.5 0.1,0.4 0,0.8 -0.2,1.1 0.3,0.3 0.5,0.4 0.8,0.4 0.5,0 1.2,-0.2 1.7,-0.3 0.3,0 0.6,0 0.9,0.1 -0.3,0.7 -1.5,0.7 -2.3,0.9 -0.4,0.1 -0.7,0.3 -0.9,0.6 0.5,0.2 1,0.6 1,1.5 0.3,0 0.5,-0.1 0.8,-0.1 0.7,-0.4 1.2,-1.1 1.9,-1.4 0,0.8 -0.5,1.3 -0.6,2 0,0.2 0,0.5 0,0.7 0,0 0.4,-0.2 0.7,-0.2 0.4,0 0.5,0.1 0.7,0.3 0.2,-0.2 0.4,-0.5 0.4,-0.7 0.1,-0.5 0.1,-1.2 0.1,-1.7 0.1,-0.3 0,-0.5 0.3,-0.5 1,0 2.1,-0.5 2.5,-1 -0.2,0.6 -0.4,1 -0.7,1.5 -0.1,0.2 -0.4,0.4 -0.5,0.5 0.6,0.1 1.3,-0.1 1.7,-0.5 1.1,-0.7 1.9,-1.6 2.4,-2.6 0.1,0.5 0.1,1.1 -0.1,1.6 -0.1,0.4 -0.4,0.6 -0.5,0.8 0.2,0 0.5,0 0.7,-0.1 0.7,-0.4 1.4,-1 1.7,-1.8 0.2,-0.5 0.5,-1 0.5,-1.6 0.5,0.5 0.5,1.3 0.2,2.1 -0.1,0.2 -0.2,0.4 -0.3,0.5 0.5,-0.1 0.9,-0.4 1.3,-0.7 0.6,-0.5 1.1,-1.7 1,-2.7 0.5,0.5 0.7,1.8 0.4,2.6 0.5,-0.1 0.9,-0.5 1.3,-0.8 0.5,-0.5 0.6,-0.8 0.9,-1.6 0.3,-0.8 0.1,-1.4 0.1,-1.4 0.1,0.1 0.3,0.4 0.3,0.6 0.3,1 -0.1,2.1 -0.9,2.9 -0.1,0.1 -0.5,0.4 -0.5,0.4 0.5,0.7 1.6,1.1 2.6,1.1 1.8,0.1 2.9,-0.6 4.7,-0.8 -0.7,0.4 -1.4,0.7 -1.8,0.9 -1,0.5 -1.9,0.7 -2.7,0.7 -0.5,0 -1,0 -1.5,-0.3 -0.4,0.5 -0.4,0.9 -0.4,1.6 0.1,0.9 0.6,1.6 0.4,2.5 -0.5,1.8 -3.7,1.6 -4.8,0.6 -1,-0.7 -0.9,-2.5 -1.7,-3.2 -0.3,-0.2 -0.5,-0.4 -1.1,-0.4 -0.2,0.5 -0.5,0.9 -1,1.2 0.1,0.4 0.3,0.5 0.5,0.8 0.4,0.4 0.8,0.6 1.2,1.1 0.1,0.2 0.2,0.4 0.3,0.6 -0.4,0 -0.6,-0.1 -0.8,-0.2 -0.6,-0.3 -1.2,-0.9 -1.9,-1.1 -0.3,0 -0.5,0 -0.9,0 0.1,0.4 -0.1,1 -0.5,1.3 0.3,0.7 1,1.2 2,1.2 0.5,0 1.2,0 1.5,0.4 -0.7,0.8 -1.9,0 -3,0 -0.3,0 -0.5,0.1 -0.8,0.2 0,0.1 0.2,0.3 0.2,0.5 0,0.4 -0.2,0.8 -0.2,0.8 0,0.3 0.6,0.5 1,0.5 0.3,0 0.5,0 0.7,0 0.7,-0.1 1.6,-0.6 2.4,-0.6 0.1,0 0.4,0.1 0.4,0.2 -0.3,0.6 -0.9,0.7 -1.3,1.1 -0.1,0.2 -0.3,0.4 -0.3,0.6 0.6,-0.2 0.9,0.1 1.2,0.5 0.3,0 0.5,-0.1 0.7,-0.2 0.4,-0.3 0.6,-0.9 0.9,-1.3 0.1,-0.1 0.2,-0.3 0.5,-0.3 0.1,0 0.3,0.3 0.5,0.5 0.5,0.7 1.5,1.3 2.6,1.1 0.4,0 0.7,-0.2 0.9,-0.5 -0.7,-0.1 -1.3,-0.6 -1.6,-1.4 0.6,0.5 1.8,0.9 2.8,0.7 0.1,0 0.5,-0.1 0.5,-0.3 -0.7,-0.2 -1.4,-0.9 -1.1,-1.8 0.4,0.5 1,1.1 1.8,1.2 0.3,0 0.5,0 0.8,-0.2 -0.1,-0.1 -0.3,-0.3 -0.4,-0.5 -0.1,-0.2 -0.2,-0.5 -0.1,-0.7 0.1,-0.6 1,-0.8 1.6,-0.9 0.8,-0.1 1.6,0.1 2.4,-0.2 0.5,-0.2 0.9,-0.5 0.9,-1.1 -0.3,0.2 -0.6,0.4 -1.1,0.3 -0.6,-0.1 -0.9,-0.6 -0.9,-1 0,-0.8 0.5,-1.2 1.5,-1.3 0.5,0 1.1,0.1 1.5,0.3 0,0 0.6,0.3 0.6,0.2 -0.3,-0.5 0,-1.6 0.2,-2 0.4,-0.7 0.7,-1.2 0.9,-1.9 0,0.1 0.1,0.3 0,0.5 -0.1,0.8 -0.4,1.3 -0.5,2.2 -0.1,0.5 0.1,1.1 0.5,1.5 0.7,0.6 2,0.8 2.5,1.8 0.3,0.8 0,1.5 -0.4,1.9 -0.5,0.7 -1.4,1.5 -2.3,1.8 -0.3,0.1 -0.7,0.4 -1.1,0.2 -0.8,-0.3 -1.1,-1.7 -1.7,-2.2 -0.3,-0.2 -0.6,-0.2 -1,-0.2 -0.1,0.3 -0.1,0.4 -0.3,0.6 -0.1,0.2 -0.5,0.4 -0.5,0.4 0,0.3 0.3,0.5 0.4,0.7 0.4,0.4 1.2,0.5 1.4,1 -0.1,0.1 -0.3,0.2 -0.5,0.2 -0.8,0 -1.3,-0.7 -2.1,-0.8 -0.2,0 -0.5,0 -0.7,0.2 0,0.2 0,0.3 0,0.5 -0.1,0.3 -0.2,0.4 -0.3,0.5 0.1,0.6 1.2,0.7 2.1,0.7 0.3,0 0.5,0.1 0.6,0.3 -0.2,0.2 -0.5,0.4 -0.8,0.5 -0.6,0.1 -1.2,-0.3 -1.8,-0.3 -0.2,0 -0.5,0.1 -0.7,0.2 0.1,0.2 0.1,0.5 0,0.6 -0.1,0.3 -0.1,0.5 -0.2,0.5 0.1,0.1 0.5,0.3 0.7,0.3 0.9,0.1 1.6,-0.6 2.6,-0.4 -0.4,0.5 -1,0.6 -1.6,0.9 -0.2,0.1 -0.5,0.4 -0.5,0.6 0.2,0.1 0.4,0.2 0.5,0.4 0.1,0.2 0.2,0.4 0.2,0.5 1.1,0.1 1.6,-0.6 2.1,-1.3 0.7,-0.8 1.8,-1.4 3.3,-1.5 1.6,-0.1 3.7,0.6 4.4,-0.7 -0.9,0 -1.9,-0.2 -2.3,-0.8 1.6,0.5 3.5,0 4.3,-1 -1.1,0.2 -2.2,-0.1 -2.6,-0.7 1.2,0.3 2.5,0.1 3.5,-0.5 0.6,-0.4 1.3,-0.9 1.5,-1.6 -0.1,0 -0.3,0.1 -0.5,0.2 -0.7,0.4 -2.1,0.3 -2.5,-0.4 0.7,0 1.4,-0.1 1.8,-0.4 0.6,-0.4 1,-0.9 1.3,-1.4 0.3,-0.5 0.5,-1 0.8,-1.4 0.2,-0.2 0.3,-0.3 0.5,-0.3 -0.1,-0.1 -0.5,-0.2 -0.6,-0.1 -1,0.2 -1.5,1.1 -2.4,1.3 0.4,-1 0.5,-2.3 0.5,-3.4 1.9,0.7 3.6,0.2 4.4,-1 0.5,-0.7 0.6,-1.6 0.6,-2.1 0,-1.2 -0.6,-2 -1.2,-2.6 -1.1,-1.2 -2.6,-2.1 -3.8,-3 -0.9,-0.6 -1.8,-1.3 -2.6,-2 -0.5,-0.5 -1.2,-1.2 -1.3,-2 -0.2,-1.3 0.5,-2.3 1.5,-2.5 2.8,-0.8 5.7,2.2 7,3.8 0.3,0.4 1.5,1.6 1,2.6 -0.1,0.2 -0.5,0.4 -0.7,0.4 -0.4,0 -0.7,-0.5 -0.5,-1 -0.7,0.2 -1.1,1.3 -0.6,1.9 0.3,0.5 0.8,0.5 1.3,0.5 0.4,-0.1 0.7,-0.3 0.8,-0.5 -0.5,1.5 0.1,3.1 0.8,3.9 0.9,1 2.2,1.3 2.7,1.3 1.4,0.1 2.7,-0.3 3.7,-1.5 1.1,-0.5 1.5,-1.6 1.1,-2.6 z m -28.6,-16.3 c -0.2,-0.4 -0.3,-0.9 -0.1,-1.2 0.5,0.4 1.1,0.5 1.6,0.5 -0.4,0.1 -1,0.3 -1.5,0.7 z"
   id="path58"
   inkscape:connector-curvature="0"
   style="fill:#ee3124"
   clip-path="url(#clipPath251)"
   transform="translate(-89.9236)" />
<g
   id="g64"
   transform="translate(-94.499997,-3.6)"
   clip-path="url(#clipPath247)">
	<path
   class="st2"
   d="M 72.3,11.2 64.4,20 72.3,28.9 80,20 Z m -4.8,8.8 4.7,-5.3 4.7,5.4 -4.6,5.2 z"
   id="path60"
   inkscape:connector-curvature="0"
   style="fill:#ffef00" />
	<path
   class="st2"
   d="m 13.8,20 7.9,8.9 7.7,-8.9 -7.7,-8.9 z m 7.9,5.3 -4.8,-5.3 4.7,-5.3 4.7,5.4 z"
   id="path62"
   inkscape:connector-curvature="0"
   style="fill:#ffef00" />
</g>
<path
   class="st3"
   d="m 46.723603,37 c -1.4,-0.4 -2.8,-0.7 -4.1,0 v 0.4 c 1.2,-0.8 2.6,-0.5 4,-0.1 1.2,0.3 2.5,0.6 3.7,0.2 v -0.3 c -1.1,0.4 -2.3,0.1 -3.6,-0.2 z"
   id="path66"
   inkscape:connector-curvature="0"
   style="fill:#00539b"
   clip-path="url(#clipPath243)"
   transform="translate(-89.9236)" />
<path
   class="st3"
   d="m 37.123603,34.2 c -1.3,0.4 -2.5,0.6 -3.6,0.2 v 0.4 c 1.1,0.5 2.4,0.1 3.7,-0.2 1.5,-0.4 2.8,-0.7 4,0.1 v -0.4 c -1.3,-0.8 -2.7,-0.4 -4.1,-0.1 z"
   id="path68"
   inkscape:connector-curvature="0"
   style="fill:#00539b"
   clip-path="url(#clipPath239)"
   transform="translate(-89.9236)" />
<path
   class="st3"
   d="m 37.123603,31.4 c -1.3,0.4 -2.5,0.6 -3.6,0.2 v 0.3 c 1.1,0.5 2.4,0.1 3.7,-0.2 1.5,-0.4 2.8,-0.7 4,0.1 v -0.4 c -1.3,-0.7 -2.7,-0.4 -4.1,0 z"
   id="path70"
   inkscape:connector-curvature="0"
   style="fill:#00539b"
   clip-path="url(#clipPath235)"
   transform="translate(-89.9236)" />
<path
   class="st3"
   d="m 37.123603,37 c -1.3,0.3 -2.5,0.6 -3.6,0.1 v 0.3 c 1.1,0.5 2.4,0.2 3.7,-0.2 1.5,-0.4 2.8,-0.7 4,0.1 v -0.4 c -1.3,-0.6 -2.7,-0.3 -4.1,0.1 z"
   id="path72"
   inkscape:connector-curvature="0"
   style="fill:#00539b"
   clip-path="url(#clipPath231)"
   transform="translate(-89.9236)" />
<path
   class="st3"
   d="m 46.723603,31.4 c -1.4,-0.4 -2.8,-0.7 -4.1,0 v 0.4 c 1.2,-0.8 2.6,-0.5 4,-0.1 1.2,0.3 2.5,0.6 3.7,0.2 v -0.3 c -1.1,0.4 -2.3,0.2 -3.6,-0.2 z"
   id="path74"
   inkscape:connector-curvature="0"
   style="fill:#00539b"
   clip-path="url(#clipPath227)"
   transform="translate(-89.9236)" />
<path
   class="st3"
   d="m 46.723603,34.2 c -1.4,-0.4 -2.8,-0.7 -4.1,0.1 v 0.4 c 1.2,-0.8 2.6,-0.5 4,-0.1 1.2,0.3 2.5,0.6 3.7,0.2 v -0.4 c -1.1,0.4 -2.3,0.1 -3.6,-0.2 z"
   id="path76"
   inkscape:connector-curvature="0"
   style="fill:#00539b"
   clip-path="url(#clipPath223)"
   transform="translate(-89.9236)" />
<g
   id="g146"
   transform="translate(-94.499997,-3.6)"
   clip-path="url(#clipPath219)">
	<path
   class="st3"
   d="m 30.8,92.2 c 0.7,-0.7 1.4,-0.4 1.4,-0.4 0.4,-0.4 0.3,-1.2 0,-1.5 -0.7,0.3 -1.5,0.9 -1.4,1.9 z"
   id="path78"
   inkscape:connector-curvature="0"
   style="fill:#00539b" />
	<path
   class="st3"
   d="m 30.8,88.6 c 0,0 0.4,-0.2 0.9,-0.2 0.5,0 0.8,0.1 0.8,0.1 0.4,-0.2 0.7,-0.9 0.5,-1.3 -1.1,0.2 -1.9,0.7 -2.2,1.4 z"
   id="path80"
   inkscape:connector-curvature="0"
   style="fill:#00539b" />
	<path
   class="st3"
   d="m 28.2,86.2 c 0,0 0.1,0.9 0.7,1.6 0.2,0.2 0.5,0.4 0.7,0.4 -0.4,-0.5 -0.3,-1.3 0,-1.7 C 29.3,86 28.5,86 28.2,86.2 Z"
   id="path82"
   inkscape:connector-curvature="0"
   style="fill:#00539b" />
	<path
   class="st3"
   d="m 29,67.4 c -1.1,-0.3 -2.2,0.3 -2.5,1.1 0,0 0.8,-0.4 1.6,0 0.1,0 0.8,-0.4 0.9,-1.1 z"
   id="path84"
   inkscape:connector-curvature="0"
   style="fill:#00539b" />
	<path
   class="st3"
   d="m 32.2,67 c 0.5,-0.3 1,-0.4 1.6,-0.2 0,-0.4 -0.5,-0.6 -0.7,-0.7 -0.5,-0.3 -0.8,-0.4 -1.5,-0.4 -0.5,0 -0.6,0.2 -0.6,0.2 0.5,0.2 1,0.5 1.2,1.1 z"
   id="path86"
   inkscape:connector-curvature="0"
   style="fill:#00539b" />
	<path
   class="st3"
   d="m 35.8,84.9 c -0.6,-0.2 -1.5,-0.1 -2,0.2 -0.5,0.3 -0.7,0.6 -0.7,0.6 1.2,-0.1 1.8,0.5 1.8,0.5 0.3,-0.2 1,-0.8 0.9,-1.3 z"
   id="path88"
   inkscape:connector-curvature="0"
   style="fill:#00539b" />
	<path
   class="st3"
   d="m 25.1,83.6 c -0.4,0.4 -0.7,1.2 -0.5,2 0.1,0.4 0.4,0.5 0.4,0.5 0.1,-0.5 0.5,-1.1 1.2,-1.1 0.1,-0.9 -0.8,-1.4 -1.1,-1.4 z"
   id="path90"
   inkscape:connector-curvature="0"
   style="fill:#00539b" />
	<path
   class="st3"
   d="m 24.8,80.3 c 0,0 -0.5,0.1 -1.2,0.8 -0.3,0.3 -0.5,0.8 -0.5,1.3 0,0 0.4,-0.4 0.9,-0.5 0.4,-0.1 0.5,-0.1 0.7,-0.1 0.5,-0.1 0.6,-1.1 0.1,-1.5 z"
   id="path92"
   inkscape:connector-curvature="0"
   style="fill:#00539b" />
	<path
   class="st3"
   d="m 46.5,46.4 c 1.3,0 1.9,-1.1 1.9,-1.1 1.8,0 10,0 10,0 V 33.4 h -1.3 v 10.7 c 0,0 -0.6,0.6 -2.2,0.6 -1.8,0 -3.8,-0.7 -5.8,-0.7 -1.8,0 -2.6,0.9 -2.7,1.1 0,0 -0.9,-1.1 -2.6,-1.1 -1.8,0 -3.9,0.7 -6.1,0.7 -1.1,0 -1.7,-0.5 -1.9,-0.6 V 33.4 h -1.2 v 11.9 h 10 c 0,0 0.6,1.1 1.9,1.1 z"
   id="path94"
   inkscape:connector-curvature="0"
   style="fill:#00539b" />
	<path
   class="st3"
   d="m 25.4,73.7 c 0,0 0.5,-0.7 0.2,-1.3 -1.1,0.1 -1.7,0.7 -2.1,1.5 0.1,0 1.1,-0.4 1.9,-0.2 z"
   id="path96"
   inkscape:connector-curvature="0"
   style="fill:#00539b" />
	<path
   class="st3"
   d="m 35.1,93.5 c 0,0 -0.4,1.4 0.6,1.8 0,0 -0.2,-0.7 0.5,-1.3 -0.1,-0.4 -0.7,-0.7 -1.1,-0.5 z"
   id="path98"
   inkscape:connector-curvature="0"
   style="fill:#00539b" />
	<path
   class="st3"
   d="m 24.5,77.8 c 0.5,-0.1 1.4,-0.2 1.7,0.2 0.6,-0.4 1,-1 0.9,-1.3 -0.1,-0.1 -0.5,-0.1 -0.6,-0.1 -1.1,0.1 -1.7,0.6 -2,1.2 z"
   id="path100"
   inkscape:connector-curvature="0"
   style="fill:#00539b" />
	<path
   class="st3"
   d="m 25.7,71.2 c 0,0 0.5,-0.8 0,-1.4 -0.8,0.2 -1.5,0.8 -1.6,1.7 0,0 0.3,-0.2 0.5,-0.3 0.5,0 0.8,0 1.1,0 z"
   id="path102"
   inkscape:connector-curvature="0"
   style="fill:#00539b" />
	<path
   class="st3"
   d="M 46.5,53.3 80.3,73.1 C 84.2,62.7 84.1,49.7 83.4,31.6 Z"
   id="path104"
   inkscape:connector-curvature="0"
   style="fill:#00539b" />
	<path
   class="st3"
   d="m 46.5,65.2 c -0.1,0.3 -0.2,0.8 -0.3,1.1 0.3,0.1 0.5,-0.2 0.8,-0.3 -0.2,-0.2 -0.4,-0.6 -0.5,-0.8 z"
   id="path106"
   inkscape:connector-curvature="0"
   style="fill:#00539b" />
	<path
   class="st3"
   d="m 43.9,96.7 c 0,0 0.3,-0.2 0.6,-0.4 0.3,-0.2 0.8,-0.2 1.1,0 0.3,-0.2 0.4,-1.1 0.2,-1.3 -0.9,0.2 -1.8,0.8 -1.9,1.7 z"
   id="path108"
   inkscape:connector-curvature="0"
   style="fill:#00539b" />
	<path
   class="st3"
   d="m 44.1,65.4 c -0.1,0.2 -0.2,0.5 -0.4,0.7 0.2,0.1 0.5,0.2 0.7,0.1 -0.1,-0.2 -0.1,-0.7 -0.3,-0.8 z"
   id="path110"
   inkscape:connector-curvature="0"
   style="fill:#00539b" />
	<path
   class="st3"
   d="M 88,22.3 87.4,4.7 H 5.8 L 5.2,22.3 c -1.8,47.4 -2.6,65.2 40.7,86 l 0.6,0.3 0.6,-0.3 C 90.6,87.5 89.8,69.7 88,22.3 Z M 46.6,105.8 C 13,89.5 7.3,75.7 7.3,45.6 c 0,-6.8 0.3,-14.5 0.6,-23.3 0,0 0.5,-12.6 0.5,-15 h 76.4 c 0.1,2.4 0.5,15 0.5,15 0.4,8.8 0.6,16.5 0.6,23.4 0.1,30 -5.8,43.7 -39.3,60.1 z"
   id="path112"
   inkscape:connector-curvature="0"
   style="fill:#00539b" />
	<path
   class="st3"
   d="M 12.9,73.1 46.5,53.3 9.7,31.7 c -0.6,18.1 -0.6,31 3.2,41.4 z"
   id="path114"
   inkscape:connector-curvature="0"
   style="fill:#00539b" />
	<path
   class="st3"
   d="m 46.9,91.3 c 0.4,-0.1 0.9,-0.2 1.3,0.1 0.5,-0.3 0.7,-0.6 0.7,-1 -0.9,-0.2 -1.8,0.2 -2,0.9 z"
   id="path116"
   inkscape:connector-curvature="0"
   style="fill:#00539b" />
	<path
   class="st3"
   d="m 46.7,97.8 c -0.4,0.3 -0.9,1.2 -0.8,1.8 0.1,0.4 0.4,0.5 0.4,0.5 0.2,-0.6 0.7,-1.2 1.2,-1.4 0,-0.2 -0.5,-0.9 -0.8,-0.9 z"
   id="path118"
   inkscape:connector-curvature="0"
   style="fill:#00539b" />
	<path
   class="st3"
   d="m 44.3,63.2 c 0.1,0.2 0.3,0.8 0.3,0.8 0.1,-0.3 0.4,-0.6 0.5,-0.9 -0.4,0 -0.7,0 -0.8,0.1 z"
   id="path120"
   inkscape:connector-curvature="0"
   style="fill:#00539b" />
	<path
   class="st3"
   d="m 43.1,63.6 c 0,0 0.3,0.5 0.4,0.6 l 0.3,-0.9 c -0.3,0 -0.6,0.2 -0.7,0.3 z"
   id="path122"
   inkscape:connector-curvature="0"
   style="fill:#00539b" />
	<path
   class="st3"
   d="m 45.4,63 c 0,0 0.3,0.6 0.4,0.9 0.1,-0.3 0.4,-0.6 0.5,-0.9 -0.3,-0.1 -0.6,-0.1 -0.9,0 z"
   id="path124"
   inkscape:connector-curvature="0"
   style="fill:#00539b" />
	<path
   class="st3"
   d="m 44.9,66.3 c 0.3,0.1 0.5,0.1 0.7,0.1 -0.1,-0.3 -0.4,-0.8 -0.4,-1 0.1,0.2 -0.2,0.7 -0.3,0.9 z"
   id="path126"
   inkscape:connector-curvature="0"
   style="fill:#00539b" />
	<path
   class="st3"
   d="m 44.6,93.8 c 0.3,-0.2 1.1,-0.4 1.7,-0.1 0.2,-0.1 0.5,-0.7 0.3,-1 -0.9,-0.3 -1.8,0.3 -2,1.1 z"
   id="path128"
   inkscape:connector-curvature="0"
   style="fill:#00539b" />
	<path
   class="st3"
   d="m 47.4,64.2 c -0.4,-0.1 -0.8,0 -1.2,0 -1.4,0.3 -3.1,0.5 -4.2,0.4 -0.9,-0.1 -2,-0.4 -2,-1.6 0,-0.5 0.2,-0.9 0.2,-0.9 -0.5,0.1 -1.1,0.7 -1,1.6 0.1,0.9 0.9,1.5 2.6,1.6 1.4,0.1 3.3,-0.4 4.5,-0.6 0.7,-0.3 1.1,-0.5 1.1,-0.5 z"
   id="path130"
   inkscape:connector-curvature="0"
   style="fill:#00539b" />
	<path
   class="st3"
   d="m 44.1,43.3 c 1.4,0 2.3,1 2.3,1 h 0.4 c 0.6,-0.6 1.3,-1 2.3,-1 1.6,0 3.2,0.6 4.6,0.6 1.3,0 2.2,-0.6 2.3,-0.7 V 32 l -0.3,0.2 c -1.2,1 -2.6,0.6 -4.2,0.3 C 49.9,32 48.1,31.7 46.7,33.1 45.2,31.6 43.5,32 41.9,32.5 40.3,32.9 39,33.2 37.7,32.2 L 37.2,32 v 11.2 c 0.1,0.1 0.9,0.8 2.3,0.8 1.4,-0.1 3.1,-0.7 4.6,-0.7 z m 2.5,-10 c 1.3,-1.4 2.9,-1 4.6,-0.6 1.5,0.4 2.9,0.6 4.3,-0.2 V 43 c -1.2,0.8 -2.6,0.6 -4.2,0.3 -1.6,-0.4 -3.3,-0.6 -4.7,0.6 0,0 0,-10.6 0,-10.6 z M 37.5,43 V 32.5 c 1.3,0.8 2.8,0.5 4.3,0.2 1.7,-0.5 3.3,-0.8 4.6,0.6 v 10.6 c -1.4,-1.3 -3.1,-1 -4.7,-0.6 -1.6,0.4 -3,0.6 -4.2,-0.3 z"
   id="path132"
   inkscape:connector-curvature="0"
   style="fill:#00539b" />
	<path
   class="st3"
   d="m 41.8,38.1 c 1.5,-0.4 2.8,-0.7 4,0.1 v -0.4 c -1.3,-0.7 -2.7,-0.4 -4.1,-0.1 -1.3,0.4 -2.5,0.6 -3.6,0.2 v 0.4 c 1.1,0.4 2.4,0.1 3.7,-0.2 z"
   id="path134"
   inkscape:connector-curvature="0"
   style="fill:#00539b" />
	<path
   class="st3"
   d="m 41.8,35.3 c 1.5,-0.4 2.8,-0.7 4,0.1 V 35 c -1.3,-0.7 -2.7,-0.4 -4.1,0 -1.3,0.4 -2.5,0.6 -3.6,0.2 v 0.3 c 1.1,0.4 2.4,0.1 3.7,-0.2 z"
   id="path136"
   inkscape:connector-curvature="0"
   style="fill:#00539b" />
	<path
   class="st3"
   d="m 45.7,41 v -0.4 c -1.3,-0.7 -2.7,-0.4 -4.1,0 -1.3,0.3 -2.5,0.6 -3.6,0.1 V 41 c 1.1,0.5 2.4,0.2 3.7,-0.2 1.5,-0.2 2.8,-0.6 4,0.2 z"
   id="path138"
   inkscape:connector-curvature="0"
   style="fill:#00539b" />
	<path
   class="st3"
   d="m 51.3,38.1 c 1.2,0.3 2.5,0.6 3.7,0.2 V 37.9 C 53.9,38.4 52.7,38.1 51.4,37.7 50,37.3 48.6,37 47.3,37.8 v 0.4 c 1.2,-0.8 2.5,-0.5 4,-0.1 z"
   id="path140"
   inkscape:connector-curvature="0"
   style="fill:#00539b" />
	<path
   class="st3"
   d="m 51.3,35.3 c 1.2,0.3 2.5,0.6 3.7,0.2 V 35.2 C 53.9,35.7 52.7,35.4 51.4,35 50,34.6 48.6,34.3 47.3,35 v 0.4 c 1.2,-0.8 2.5,-0.5 4,-0.1 z"
   id="path142"
   inkscape:connector-curvature="0"
   style="fill:#00539b" />
	<path
   class="st3"
   d="m 51.3,40.9 c 1.2,0.3 2.5,0.6 3.7,0.2 V 40.8 C 53.9,41.3 52.7,41 51.4,40.7 50,40.3 48.6,40 47.3,40.7 v 0.4 c 1.2,-0.9 2.5,-0.5 4,-0.2 z"
   id="path144"
   inkscape:connector-curvature="0"
   style="fill:#00539b" />
</g>

<polygon
   class="st0"
   points="786.2,81.3 786.2,75.9 810.5,75.9 810.5,59.5 780.6,59.5 777.9,59.5 775.1,59.5 745.2,59.5 745.2,75.9 769.5,75.9 769.5,81.3 745.2,81.3 745.2,97.7 769.5,97.7 769.5,103.1 745.2,103.1 742.4,103.1 739.6,103.1 715.2,103.1 715.2,97.7 739.6,97.7 739.6,81.3 715.2,81.3 715.2,75.9 739.6,75.9 739.6,59.5 715.2,59.5 715.2,56.8 715.2,54.1 739.6,54.1 739.6,37.7 715.2,37.7 715.2,32.2 739.6,32.2 739.6,15.9 715.2,15.9 715.2,10.4 739.6,10.4 742.4,10.4 745.2,10.4 769.5,10.4 769.5,15.9 745.2,15.9 745.2,32.2 769.5,32.2 769.5,37.7 745.2,37.7 745.2,54.1 775.1,54.1 777.9,54.1 780.6,54.1 810.5,54.1 810.5,37.7 786.2,37.7 786.2,32.2 810.5,32.2 810.5,15.9 786.2,15.9 786.2,10.4 810.5,10.4 810.5,5 780.6,5 780.6,21.3 805,21.3 805,26.8 780.6,26.8 780.6,43.2 805,43.2 805,48.6 780.6,48.6 777.9,48.6 775.1,48.6 750.7,48.6 750.7,43.2 775.1,43.2 775.1,37.7 775.1,26.8 750.7,26.8 750.7,21.3 775.1,21.3 775.1,5 745.2,5 742.4,5 739.6,5 709.7,5 709.7,21.3 734.1,21.3 734.1,26.8 709.7,26.8 709.7,43.2 734.1,43.2 734.1,48.6 709.7,48.6 709.7,54.1 709.7,56.8 709.7,59.5 709.7,65 734.1,65 734.1,70.4 709.7,70.4 709.7,75.9 709.7,86.8 734.1,86.8 734.1,92.2 709.7,92.2 709.7,108.6 739.6,108.6 742.4,108.6 745.2,108.6 775.1,108.6 775.1,92.2 750.7,92.2 750.7,86.8 775.1,86.8 775.1,70.4 750.7,70.4 750.7,65 775.1,65 777.9,65 780.6,65 805,65 805,70.4 780.6,70.4 780.6,75.9 780.6,86.8 805,86.8 805,92.2 780.6,92.2 780.6,108.6 810.5,108.6 810.5,103.1 786.2,103.1 786.2,97.7 810.5,97.7 810.5,81.3 "
   id="polygon196"
   transform="translate(-709.7,-5)"
   style="fill:#00539b;fill-opacity:1"
   clip-path="url(#clipPath215)" />
</svg>
