<?xml version="1.0" encoding="UTF-8" standalone="no"?>
<!DOCTYPE svg PUBLIC "-//W3C//DTD SVG 1.1//EN"
 "http://www.w3.org/Graphics/SVG/1.1/DTD/svg11.dtd">
<!-- Generated by graphviz version 2.43.0 (0)
 -->
<!-- Title: hgn Pages: 1 -->
<svg width="168pt" height="94pt"
 viewBox="0.00 0.00 168.06 94.40" xmlns="http://www.w3.org/2000/svg" xmlns:xlink="http://www.w3.org/1999/xlink">
<g id="graph0" class="graph" transform="scale(1 1) rotate(0) translate(4 90.4)">
<title>hgn</title>
<!-- 1 -->
<g id="node1" class="node">
<title>1</title>
<ellipse fill="#4477aa" stroke="black" cx="70.06" cy="-18" rx="18" ry="18"/>
<text text-anchor="middle" x="70.06" y="-14.3" font-family="Times,serif" font-size="14.00">1</text>
</g>
<!-- 2 -->
<g id="node2" class="node">
<title>2</title>
<ellipse fill="#ccbb44" stroke="black" cx="142.06" cy="-18" rx="18" ry="18"/>
<text text-anchor="middle" x="142.06" y="-14.3" font-family="Times,serif" font-size="14.00">2</text>
</g>
<!-- 1&#45;&gt;2 -->
<g id="edge1" class="edge">
<title>1&#45;&gt;2</title>
<path fill="none" stroke="black" d="M88.23,-18C95.93,-18 105.09,-18 113.64,-18"/>
<polygon fill="black" stroke="black" points="113.65,-21.5 123.65,-18 113.65,-14.5 113.65,-21.5"/>
</g>
<!-- 4 -->
<g id="node4" class="node">
<title>4</title>
<ellipse fill="#ccbb44" stroke="black" cx="18" cy="-53.76" rx="18" ry="18"/>
<text text-anchor="middle" x="18" y="-50.06" font-family="Times,serif" font-size="14.00">4</text>
</g>
<!-- 1&#45;&gt;4 -->
<g id="edge2" class="edge">
<title>1&#45;&gt;4</title>
<path fill="none" stroke="black" d="M55,-28.34C50.76,-31.26 46.03,-34.5 41.42,-37.67"/>
<polygon fill="black" stroke="black" points="39.1,-35.02 32.84,-43.57 43.07,-40.79 39.1,-35.02"/>
</g>
<!-- 3 -->
<g id="node3" class="node">
<title>3</title>
<ellipse fill="#ee6677" stroke="black" cx="106.06" cy="-68.4" rx="18" ry="18"/>
<text text-anchor="middle" x="106.06" y="-64.7" font-family="Times,serif" font-size="14.00">3</text>
</g>
<!-- 2&#45;&gt;3 -->
<g id="edge3" class="edge">
<title>2&#45;&gt;3</title>
<path fill="none" stroke="black" d="M131.45,-32.85C128.69,-36.71 125.66,-40.97 122.67,-45.15"/>
<polygon fill="black" stroke="black" points="119.68,-43.31 116.71,-53.48 125.38,-47.38 119.68,-43.31"/>
</g>
<!-- 3&#45;&gt;1 -->
<g id="edge4" class="edge">
<title>3&#45;&gt;1</title>
<path fill="none" stroke="black" d="M95.45,-53.55C92.69,-49.69 89.66,-45.43 86.67,-41.25"/>
<polygon fill="black" stroke="black" points="89.38,-39.02 80.71,-32.92 83.68,-43.09 89.38,-39.02"/>
</g>
</g>
</svg>
