<?xml version="1.0" encoding="UTF-8" standalone="no"?>
<!DOCTYPE svg PUBLIC "-//W3C//DTD SVG 1.1//EN"
 "http://www.w3.org/Graphics/SVG/1.1/DTD/svg11.dtd">
<!-- Generated by graphviz version 2.43.0 (0)
 -->
<!-- Title: hgn Pages: 1 -->
<svg width="260pt" height="116pt"
 viewBox="0.00 0.00 260.00 116.00" xmlns="http://www.w3.org/2000/svg" xmlns:xlink="http://www.w3.org/1999/xlink">
<g id="graph0" class="graph" transform="scale(1 1) rotate(0) translate(4 112)">
<title>hgn</title>
<!-- 1 -->
<g id="node1" class="node">
<title>1</title>
<ellipse fill="white" stroke="black" cx="90" cy="-54" rx="18" ry="18"/>
<text text-anchor="middle" x="90" y="-50.3" font-family="Times,serif" font-size="14.00">1</text>
</g>
<!-- 2 -->
<g id="node2" class="node">
<title>2</title>
<ellipse fill="white" stroke="black" cx="18" cy="-90" rx="18" ry="18"/>
<text text-anchor="middle" x="18" y="-86.3" font-family="Times,serif" font-size="14.00">2</text>
</g>
<!-- 1&#45;&gt;2 -->
<g id="edge1" class="edge">
<title>1&#45;&gt;2</title>
<path fill="none" stroke="black" d="M73.66,-62.17C64.73,-66.63 53.47,-72.26 43.42,-77.29"/>
<polygon fill="black" stroke="black" points="41.65,-74.26 34.27,-81.86 44.78,-80.52 41.65,-74.26"/>
</g>
<!-- 3 -->
<g id="node3" class="node">
<title>3</title>
<ellipse fill="white" stroke="black" cx="18" cy="-18" rx="18" ry="18"/>
<text text-anchor="middle" x="18" y="-14.3" font-family="Times,serif" font-size="14.00">3</text>
</g>
<!-- 1&#45;&gt;3 -->
<g id="edge2" class="edge">
<title>1&#45;&gt;3</title>
<path fill="none" stroke="black" d="M73.66,-45.83C64.73,-41.37 53.47,-35.74 43.42,-30.71"/>
<polygon fill="black" stroke="black" points="44.78,-27.48 34.27,-26.14 41.65,-33.74 44.78,-27.48"/>
</g>
<!-- 4 -->
<g id="node4" class="node">
<title>4</title>
<ellipse fill="white" stroke="black" cx="162" cy="-54" rx="18" ry="18"/>
<text text-anchor="middle" x="162" y="-50.3" font-family="Times,serif" font-size="14.00">4</text>
</g>
<!-- 1&#45;&gt;4 -->
<g id="edge3" class="edge">
<title>1&#45;&gt;4</title>
<path fill="none" stroke="black" d="M107.06,-59.84C115.19,-60.7 125.12,-60.95 134.3,-60.59"/>
<polygon fill="black" stroke="black" points="134.82,-64.06 144.56,-59.88 134.34,-57.08 134.82,-64.06"/>
</g>
<!-- 4&#45;&gt;1 -->
<g id="edge4" class="edge">
<title>4&#45;&gt;1</title>
<path fill="none" stroke="black" d="M144.94,-48.16C136.81,-47.3 126.88,-47.05 117.7,-47.41"/>
<polygon fill="black" stroke="black" points="117.18,-43.94 107.44,-48.12 117.66,-50.92 117.18,-43.94"/>
</g>
<!-- 5 -->
<g id="node5" class="node">
<title>5</title>
<ellipse fill="white" stroke="black" cx="234" cy="-90" rx="18" ry="18"/>
<text text-anchor="middle" x="234" y="-86.3" font-family="Times,serif" font-size="14.00">5</text>
</g>
<!-- 4&#45;&gt;5 -->
<g id="edge5" class="edge">
<title>4&#45;&gt;5</title>
<path fill="none" stroke="black" d="M178.34,-62.17C187.27,-66.63 198.53,-72.26 208.58,-77.29"/>
<polygon fill="black" stroke="black" points="207.22,-80.52 217.73,-81.86 210.35,-74.26 207.22,-80.52"/>
</g>
<!-- 6 -->
<g id="node6" class="node">
<title>6</title>
<ellipse fill="white" stroke="black" cx="234" cy="-18" rx="18" ry="18"/>
<text text-anchor="middle" x="234" y="-14.3" font-family="Times,serif" font-size="14.00">6</text>
</g>
<!-- 4&#45;&gt;6 -->
<g id="edge6" class="edge">
<title>4&#45;&gt;6</title>
<path fill="none" stroke="black" d="M178.34,-45.83C187.27,-41.37 198.53,-35.74 208.58,-30.71"/>
<polygon fill="black" stroke="black" points="210.35,-33.74 217.73,-26.14 207.22,-27.48 210.35,-33.74"/>
</g>
</g>
</svg>
