<?xml version="1.0" encoding="UTF-8" standalone="no"?>
<!DOCTYPE svg PUBLIC "-//W3C//DTD SVG 1.1//EN"
 "http://www.w3.org/Graphics/SVG/1.1/DTD/svg11.dtd">
<!-- Generated by graphviz version 2.43.0 (0)
 -->
<!-- Title: hgn Pages: 1 -->
<svg width="188pt" height="116pt"
 viewBox="0.00 0.00 188.00 116.00" xmlns="http://www.w3.org/2000/svg" xmlns:xlink="http://www.w3.org/1999/xlink">
<g id="graph0" class="graph" transform="scale(1 1) rotate(0) translate(4 112)">
<title>hgn</title>
<!-- 1 -->
<g id="node1" class="node">
<title>1</title>
<ellipse fill="white" stroke="black" cx="18" cy="-90" rx="18" ry="18"/>
<text text-anchor="middle" x="18" y="-86.3" font-family="Times,serif" font-size="14.00">1</text>
</g>
<!-- 4 -->
<g id="node4" class="node">
<title>4</title>
<ellipse fill="white" stroke="black" cx="18" cy="-18" rx="18" ry="18"/>
<text text-anchor="middle" x="18" y="-14.3" font-family="Times,serif" font-size="14.00">4</text>
</g>
<!-- 1&#45;&gt;4 -->
<g id="edge1" class="edge">
<title>1&#45;&gt;4</title>
<path fill="none" stroke="black" d="M23.84,-72.94C24.7,-64.81 24.95,-54.88 24.59,-45.7"/>
<polygon fill="black" stroke="black" points="28.06,-45.18 23.88,-35.44 21.08,-45.66 28.06,-45.18"/>
</g>
<!-- 2 -->
<g id="node2" class="node">
<title>2</title>
<ellipse fill="white" stroke="black" cx="90" cy="-90" rx="18" ry="18"/>
<text text-anchor="middle" x="90" y="-86.3" font-family="Times,serif" font-size="14.00">2</text>
</g>
<!-- 5 -->
<g id="node5" class="node">
<title>5</title>
<ellipse fill="white" stroke="black" cx="90" cy="-18" rx="18" ry="18"/>
<text text-anchor="middle" x="90" y="-14.3" font-family="Times,serif" font-size="14.00">5</text>
</g>
<!-- 2&#45;&gt;5 -->
<g id="edge2" class="edge">
<title>2&#45;&gt;5</title>
<path fill="none" stroke="black" d="M90,-71.83C90,-64.13 90,-54.97 90,-46.42"/>
<polygon fill="black" stroke="black" points="93.5,-46.41 90,-36.41 86.5,-46.41 93.5,-46.41"/>
</g>
<!-- 3 -->
<g id="node3" class="node">
<title>3</title>
<ellipse fill="white" stroke="black" cx="162" cy="-54" rx="18" ry="18"/>
<text text-anchor="middle" x="162" y="-50.3" font-family="Times,serif" font-size="14.00">3</text>
</g>
<!-- 4&#45;&gt;1 -->
<g id="edge3" class="edge">
<title>4&#45;&gt;1</title>
<path fill="none" stroke="black" d="M12.16,-35.06C11.3,-43.19 11.05,-53.12 11.41,-62.3"/>
<polygon fill="black" stroke="black" points="7.94,-62.82 12.12,-72.56 14.92,-62.34 7.94,-62.82"/>
</g>
<!-- 5&#45;&gt;4 -->
<g id="edge4" class="edge">
<title>5&#45;&gt;4</title>
<path fill="none" stroke="black" d="M71.83,-18C64.13,-18 54.97,-18 46.42,-18"/>
<polygon fill="black" stroke="black" points="46.41,-14.5 36.41,-18 46.41,-21.5 46.41,-14.5"/>
</g>
<!-- 5&#45;&gt;5 -->
<g id="edge5" class="edge">
<title>5&#45;&gt;5</title>
<path fill="none" stroke="black" d="M107.04,-24.38C116.86,-25.68 126,-23.55 126,-18 126,-14.53 122.43,-12.4 117.35,-11.6"/>
<polygon fill="black" stroke="black" points="117.03,-8.1 107.04,-11.62 117.04,-15.1 117.03,-8.1"/>
</g>
</g>
</svg>
